<?xml version="1.0" encoding="UTF-8"?>
<svg version="1.1" viewBox="0 0 1280 1280" width="1280" height="1280" xmlns="http://www.w3.org/2000/svg">
<path transform="translate(0)" d="m0 0h1280v1280h-1280z"/>
<path transform="translate(608,475)" d="m0 0h24l19 1 12 36 13 36 15 44 14 40 11 31 12 36 2 5h2l11-21 13-29 16-35 26-58 13-30 11-24 11-26 2-5h72l-2 6-10 19-12 28-17 36-15 33-8 18-14 31-28 63-12 26-13 30-14 32-4 5-6 2h-34l-12-1-5-8-8-18-14-36-13-33-9-25-12-36-13-37-3-6-2-1-3 10-11 35-18 55-16 41-14 36-8 21-1 2-5 1h-37l-10-1-5-5-13-36-6-15-2-3-3 1-4 9-3 13v20l4 15 1 5-4-2-13-11-6-12-1-4v-18l5-17 10-22 12-22 14-25 9-16 8-16 9-20 6-18 6-29 2-15 2 2 6 19v20l-3 20-5 17-9 21-4 10 4 16 7 17 2 1 1-5 10-27 16-47 12-36 22-65 14-41z" fill="#FFFFFE"/>
<path transform="translate(1092,475)" d="m0 0h74v329l-8 1h-36l-25-1-1-3v-212l-11 13-36 53-16 24-10 14-12 18-8 9-4-2-7-9-48-72-23-34-10-12-2-1 1 55v156l-2 3-8 1h-27l-32-1-2-2 1-146 4-15 19-41 13-28 14-30 16-36 6-13 6-11 5 2 9 12 14 22 52 78 5 5 7-6 29-43 15-23 14-21 14-22 7-10z" fill="#FFFFFE"/>
<path transform="translate(116,476)" d="m0 0h76l5 5 7 10 7 11 14 20 26 39 8 11 10 15 8 10 3-1 13-17 13-18 12-17 26-36 12-17 6-8 6-7h6l27 13 28 13 13 7 1 1v50l-4 13-19 37-12 22-13 27-9 20-8 16-4 7h-1v-118l-5 5-8 9-12 17-42 57-12 17-8 11-5 6-3 1-5-4-10-14-8-11-9-13-13-18-12-17-13-18-8-11-9-11-6-6v220l-22 1h-16l-30-1-1-314-1-13z" fill="#FFFFFE"/>
<path transform="translate(435,468)" d="m0 0h15l17 5 11 6 12 9 8 8 9 14 5 15 2 12v13l-3 21-4 14-6 17-12 27-11 22-6 11-12 23-14 27-8 18-6 18-2 11v21l3 15 5 8v2l4 2 9 6 8 4-1 3-5 2h-14l-15-5-16-9-14-13-8-12-6-19-2-13-1-24 2-12 3-12v-11l5-9 8-14 5-12 5-15 7-13 4-10 7-13h2l2-5 5-5 7-11h2v-2h2l2-5 10-23 5-19 3-16v-18l-4-9-6-8-13-9-6-4-1-3z" fill="#5C0002"/>
<path transform="translate(465,472)" d="m0 0 6 1 16 10 10 9 9 13 6 14 3 9 1 9 4 6 2 9 1 2v17l-7 25-7 18-5 13-8 16-3 10-2 4h-2l-2 6-5 7-2 6v2h-2l-1 6-7 16-2 1-2 6-8 16-8 19-6 5h-2l-3 11-3 14v20l3 9 5 6 15 9-2 1-11-6-8-6-6-10-3-15v-21l4-18 7-18 14-29 10-19 12-23 10-19 9-19 9-22 6-21 3-21v-13l-3-15-4-12-7-11-9-10-12-9-13-7z" fill="#1E0202"/>
<path transform="translate(913,479)" d="m0 0 1 2v3l4-2-9 19-16 36-15 33-12 26-21 45-4 15-1 53h-1l-1-39v-21h2l1-9 2-3-3 3-3 4v-6l1-3-3 5-5 12-8 16-4 4 3-9 20-45 7-15 13-29 16-34 12-27 7-16 9-17 2 1-2 7h-2l1 2 4-2 1-4z" fill="#220101"/>
<path transform="translate(443,478)" d="m0 0 5 2 9 8 5 8 2 6v18l-4 20-4 15-10 23-3 5h-2v2l-4 4-7 11-4 4-1 2h-2l-2 6-7 13-3 7-6 13-6 18-10 19-5 7-1 7v8l-4 14-1 17 2 23 4 16 4 11 9 12 11 10 16 9 15 5 14 1v1h-15l-19-6-5-2v-2l-6-2-7-6v-2h-2v-2l-4-2-6-8-6-12-5-18-2-14v-32l-1-10h-3v-7l2 3 10-21 8-16 13-28 13-25 10-19 11-21 3-11v-51l3 1 4 9 2 7v16l1 6h4l4-19-1-6-6-10-1-5h-2l-3-8v-16z" fill="#220102"/>
<path transform="translate(443,478)" d="m0 0 5 2 9 8 5 8 2 6v18l-4 20-2 6-1-4 3-13-1-6-6-10-1-5h-2l-3-8v-16z" fill="#1E0202"/>
<path transform="translate(114,476)" d="m0 0 2 1 1 13v314l-4-1v-15l2-4v-288h-1z" fill="#1E0102"/>
<path transform="translate(377,718)" d="m0 0h1v17l2 23 4 16 4 11 9 12 11 10 16 9 15 5 14 1v1h-15l-19-6-5-2v-2l-6-2-7-6v-2h-2v-2l-4-2-6-8-6-12-5-18-2-14v-28z" fill="#1E0202"/>
<path transform="translate(185,600)" d="m0 0h1l1 192 1 3v9h-3z" fill="#1E0202"/>
<path transform="translate(839,651)" d="m0 0h2l-1 58h-1l-1-39v-18z" fill="#3B0102"/>
<path transform="translate(114,476)" d="m0 0 2 1 1 13v12h-1l-1-6h-1z" fill="#2F0102"/>
<path transform="translate(420,608)" d="m0 0h2l-2 5-6 12-3 2 2-6z" fill="#2E0102"/>
<path transform="translate(185,792)" d="m0 0h2l1 3v9h-3z" fill="#270102"/>
<path transform="translate(894,526)" d="m0 0 2 4-4 9h-2l1-5z" fill="#4B0002"/>
</svg>
